<?xml version="1.0" encoding="UTF-8" standalone="no"?>
<!DOCTYPE svg PUBLIC "-//W3C//DTD SVG 1.1//EN"
 "http://www.w3.org/Graphics/SVG/1.1/DTD/svg11.dtd">
<!-- Generated by graphviz version 2.47.3 (20210619.1520)
 -->
<!-- Title: dependencies Pages: 1 -->
<svg width="916pt" height="247pt"
 viewBox="0.00 0.00 916.00 246.80" xmlns="http://www.w3.org/2000/svg" xmlns:xlink="http://www.w3.org/1999/xlink">
<g id="graph0" class="graph" transform="scale(1 1) rotate(0) translate(4 242.8)">
<title>dependencies</title>
<polygon fill="white" stroke="transparent" points="-4,4 -4,-242.8 912,-242.8 912,4 -4,4"/>
<text text-anchor="middle" x="454" y="-8.2" font-family="sans-serif" font-size="14.00">dependencies</text>
<g id="clust1" class="cluster">
<title>cluster_AuthModule</title>
<polygon fill="none" stroke="black" stroke-dasharray="1,5" points="8,-32.8 8,-230.8 900,-230.8 900,-32.8 8,-32.8"/>
</g>
<g id="clust3" class="cluster">
<title>cluster_AuthModule_imports</title>
<polygon fill="none" stroke="black" points="784,-40.8 784,-92.8 892,-92.8 892,-40.8 784,-40.8"/>
</g>
<g id="clust4" class="cluster">
<title>cluster_AuthModule_exports</title>
<polygon fill="none" stroke="black" points="434,-170.8 434,-222.8 540,-222.8 540,-170.8 434,-170.8"/>
</g>
<g id="clust6" class="cluster">
<title>cluster_AuthModule_providers</title>
<polygon fill="none" stroke="black" points="16,-40.8 16,-92.8 776,-92.8 776,-40.8 16,-40.8"/>
</g>
<!-- UsersModule -->
<g id="node1" class="node">
<title>UsersModule</title>
<polygon fill="#8dd3c7" stroke="black" points="883.92,-84.8 880.92,-88.8 859.92,-88.8 856.92,-84.8 792.08,-84.8 792.08,-48.8 883.92,-48.8 883.92,-84.8"/>
<text text-anchor="middle" x="838" y="-62.6" font-family="Times,serif" font-size="14.00">UsersModule</text>
</g>
<!-- AuthModule -->
<g id="node2" class="node">
<title>AuthModule</title>
<polygon fill="#8dd3c7" stroke="black" points="530.55,-149.8 527.55,-153.8 506.55,-153.8 503.55,-149.8 443.45,-149.8 443.45,-113.8 530.55,-113.8 530.55,-149.8"/>
<text text-anchor="middle" x="487" y="-127.6" font-family="Times,serif" font-size="14.00">AuthModule</text>
</g>
<!-- UsersModule&#45;&gt;AuthModule -->
<g id="edge1" class="edge">
<title>UsersModule&#45;&gt;AuthModule</title>
<path fill="none" stroke="black" d="M838,-85.08C838,-106.12 838,-137.8 838,-137.8 838,-137.8 540.74,-137.8 540.74,-137.8"/>
<polygon fill="black" stroke="black" points="540.74,-134.3 530.74,-137.8 540.74,-141.3 540.74,-134.3"/>
</g>
<!-- AuthService  -->
<g id="node3" class="node">
<title>AuthService </title>
<polygon fill="#fb8072" stroke="black" points="531.98,-214.8 442.02,-214.8 442.02,-178.8 531.98,-178.8 531.98,-214.8"/>
<text text-anchor="middle" x="487" y="-192.6" font-family="Times,serif" font-size="14.00">AuthService </text>
</g>
<!-- AuthModule&#45;&gt;AuthService  -->
<g id="edge2" class="edge">
<title>AuthModule&#45;&gt;AuthService </title>
<path fill="none" stroke="black" stroke-dasharray="5,2" d="M487,-149.91C487,-149.91 487,-168.79 487,-168.79"/>
<polygon fill="black" stroke="black" points="483.5,-168.79 487,-178.79 490.5,-168.79 483.5,-168.79"/>
</g>
<!-- AuthService -->
<g id="node4" class="node">
<title>AuthService</title>
<ellipse fill="#fdb462" stroke="black" cx="709" cy="-66.8" rx="59.11" ry="18"/>
<text text-anchor="middle" x="709" y="-62.6" font-family="Times,serif" font-size="14.00">AuthService</text>
</g>
<!-- AuthService&#45;&gt;AuthModule -->
<g id="edge3" class="edge">
<title>AuthService&#45;&gt;AuthModule</title>
<path fill="none" stroke="black" d="M709,-84.82C709,-102.17 709,-125.8 709,-125.8 709,-125.8 540.6,-125.8 540.6,-125.8"/>
<polygon fill="black" stroke="black" points="540.6,-122.3 530.6,-125.8 540.6,-129.3 540.6,-122.3"/>
</g>
<!-- GoogleStrategy -->
<g id="node5" class="node">
<title>GoogleStrategy</title>
<ellipse fill="#fdb462" stroke="black" cx="560" cy="-66.8" rx="71.79" ry="18"/>
<text text-anchor="middle" x="560" y="-62.6" font-family="Times,serif" font-size="14.00">GoogleStrategy</text>
</g>
<!-- GoogleStrategy&#45;&gt;AuthModule -->
<g id="edge4" class="edge">
<title>GoogleStrategy&#45;&gt;AuthModule</title>
<path fill="none" stroke="black" d="M509.56,-79.64C509.56,-79.64 509.56,-103.32 509.56,-103.32"/>
<polygon fill="black" stroke="black" points="506.06,-103.32 509.56,-113.32 513.06,-103.32 506.06,-103.32"/>
</g>
<!-- JwtStrategy -->
<g id="node6" class="node">
<title>JwtStrategy</title>
<ellipse fill="#fdb462" stroke="black" cx="414" cy="-66.8" rx="56.76" ry="18"/>
<text text-anchor="middle" x="414" y="-62.6" font-family="Times,serif" font-size="14.00">JwtStrategy</text>
</g>
<!-- JwtStrategy&#45;&gt;AuthModule -->
<g id="edge5" class="edge">
<title>JwtStrategy&#45;&gt;AuthModule</title>
<path fill="none" stroke="black" d="M456.93,-78.72C456.93,-78.72 456.93,-103.57 456.93,-103.57"/>
<polygon fill="black" stroke="black" points="453.43,-103.57 456.93,-113.57 460.43,-103.57 453.43,-103.57"/>
</g>
<!-- LocalStrategy -->
<g id="node7" class="node">
<title>LocalStrategy</title>
<ellipse fill="#fdb462" stroke="black" cx="274" cy="-66.8" rx="65.41" ry="18"/>
<text text-anchor="middle" x="274" y="-62.6" font-family="Times,serif" font-size="14.00">LocalStrategy</text>
</g>
<!-- LocalStrategy&#45;&gt;AuthModule -->
<g id="edge6" class="edge">
<title>LocalStrategy&#45;&gt;AuthModule</title>
<path fill="none" stroke="black" d="M274,-84.82C274,-102.17 274,-125.8 274,-125.8 274,-125.8 433.38,-125.8 433.38,-125.8"/>
<polygon fill="black" stroke="black" points="433.38,-129.3 443.38,-125.8 433.38,-122.3 433.38,-129.3"/>
</g>
<!-- VkontakteStrategy -->
<g id="node8" class="node">
<title>VkontakteStrategy</title>
<ellipse fill="#fdb462" stroke="black" cx="107" cy="-66.8" rx="83.39" ry="18"/>
<text text-anchor="middle" x="107" y="-62.6" font-family="Times,serif" font-size="14.00">VkontakteStrategy</text>
</g>
<!-- VkontakteStrategy&#45;&gt;AuthModule -->
<g id="edge7" class="edge">
<title>VkontakteStrategy&#45;&gt;AuthModule</title>
<path fill="none" stroke="black" d="M107,-85.08C107,-106.12 107,-137.8 107,-137.8 107,-137.8 433.41,-137.8 433.41,-137.8"/>
<polygon fill="black" stroke="black" points="433.41,-141.3 443.41,-137.8 433.41,-134.3 433.41,-141.3"/>
</g>
</g>
</svg>
