<?xml version="1.0" encoding="UTF-8" standalone="no"?>
<!DOCTYPE svg PUBLIC "-//W3C//DTD SVG 1.1//EN"
 "http://www.w3.org/Graphics/SVG/1.1/DTD/svg11.dtd">
<!-- Generated by graphviz version 2.47.3 (20210619.1520)
 -->
<!-- Title: dependencies Pages: 1 -->
<svg width="4040pt" height="247pt"
 viewBox="0.00 0.00 4040.00 246.80" xmlns="http://www.w3.org/2000/svg" xmlns:xlink="http://www.w3.org/1999/xlink">
<g id="graph0" class="graph" transform="scale(1 1) rotate(0) translate(4 242.8)">
<title>dependencies</title>
<polygon fill="white" stroke="transparent" points="-4,4 -4,-242.8 4036,-242.8 4036,4 -4,4"/>
<text text-anchor="middle" x="2016" y="-8.2" font-family="sans-serif" font-size="14.00">dependencies</text>
<g id="clust1" class="cluster">
<title>cluster_AppModule</title>
<polygon fill="none" stroke="black" stroke-dasharray="1,5" points="8,-32.8 8,-230.8 705,-230.8 705,-32.8 8,-32.8"/>
</g>
<g id="clust2" class="cluster">
<title>cluster_AppModule_declarations</title>
<polygon fill="none" stroke="black" points="168,-40.8 168,-92.8 697,-92.8 697,-40.8 168,-40.8"/>
</g>
<g id="clust7" class="cluster">
<title>cluster_AppModule_imports</title>
<polygon fill="none" stroke="black" points="16,-40.8 16,-92.8 160,-92.8 160,-40.8 16,-40.8"/>
</g>
<g id="clust9" class="cluster">
<title>cluster_AppModule_bootstrap</title>
<polygon fill="none" stroke="black" points="508,-170.8 508,-222.8 632,-222.8 632,-170.8 508,-170.8"/>
</g>
<g id="clust17" class="cluster">
<title>cluster_AppServerModule</title>
<polygon fill="none" stroke="black" stroke-dasharray="1,5" points="713,-170.8 713,-222.8 849,-222.8 849,-170.8 713,-170.8"/>
</g>
<g id="clust23" class="cluster">
<title>cluster_AuthModule</title>
<polygon fill="none" stroke="black" stroke-dasharray="1,5" points="713,-32.8 713,-157.8 1874,-157.8 1874,-32.8 713,-32.8"/>
</g>
<g id="clust24" class="cluster">
<title>cluster_AuthModule_declarations</title>
<polygon fill="none" stroke="black" points="877,-40.8 877,-92.8 1866,-92.8 1866,-40.8 877,-40.8"/>
</g>
<g id="clust31" class="cluster">
<title>cluster_AuthModule_imports</title>
<polygon fill="none" stroke="black" points="721,-40.8 721,-92.8 869,-92.8 869,-40.8 721,-40.8"/>
</g>
<g id="clust41" class="cluster">
<title>cluster_HttpStatusModule</title>
<polygon fill="none" stroke="black" stroke-dasharray="1,5" points="1882,-32.8 1882,-157.8 2242,-157.8 2242,-32.8 1882,-32.8"/>
</g>
<g id="clust42" class="cluster">
<title>cluster_HttpStatusModule_declarations</title>
<polygon fill="none" stroke="black" points="2078,-40.8 2078,-92.8 2234,-92.8 2234,-40.8 2078,-40.8"/>
</g>
<g id="clust44" class="cluster">
<title>cluster_HttpStatusModule_imports</title>
<polygon fill="none" stroke="black" points="1890,-40.8 1890,-92.8 2070,-92.8 2070,-40.8 1890,-40.8"/>
</g>
<g id="clust54" class="cluster">
<title>cluster_TasksModule</title>
<polygon fill="none" stroke="black" stroke-dasharray="1,5" points="2250,-32.8 2250,-157.8 3573,-157.8 3573,-32.8 2250,-32.8"/>
</g>
<g id="clust55" class="cluster">
<title>cluster_TasksModule_declarations</title>
<polygon fill="none" stroke="black" points="2718,-40.8 2718,-92.8 3565,-92.8 3565,-40.8 2718,-40.8"/>
</g>
<g id="clust62" class="cluster">
<title>cluster_TasksModule_imports</title>
<polygon fill="none" stroke="black" points="2556,-40.8 2556,-92.8 2710,-92.8 2710,-40.8 2556,-40.8"/>
</g>
<g id="clust65" class="cluster">
<title>cluster_TasksModule_providers</title>
<polygon fill="none" stroke="black" points="2258,-40.8 2258,-92.8 2548,-92.8 2548,-40.8 2258,-40.8"/>
</g>
<g id="clust72" class="cluster">
<title>cluster_UsersModule</title>
<polygon fill="none" stroke="black" stroke-dasharray="1,5" points="3581,-32.8 3581,-157.8 4024,-157.8 4024,-32.8 3581,-32.8"/>
</g>
<g id="clust73" class="cluster">
<title>cluster_UsersModule_declarations</title>
<polygon fill="none" stroke="black" points="3749,-40.8 3749,-92.8 4016,-92.8 4016,-40.8 3749,-40.8"/>
</g>
<g id="clust76" class="cluster">
<title>cluster_UsersModule_imports</title>
<polygon fill="none" stroke="black" points="3589,-40.8 3589,-92.8 3741,-92.8 3741,-40.8 3589,-40.8"/>
</g>
<!-- AppComponent -->
<g id="node1" class="node">
<title>AppComponent</title>
<polygon fill="#ffffb3" stroke="black" points="688.94,-84.8 583.06,-84.8 583.06,-48.8 688.94,-48.8 688.94,-84.8"/>
<text text-anchor="middle" x="636" y="-62.6" font-family="Times,serif" font-size="14.00">AppComponent</text>
</g>
<!-- AppModule -->
<g id="node5" class="node">
<title>AppModule</title>
<polygon fill="#8dd3c7" stroke="black" points="547.66,-149.8 544.66,-153.8 523.66,-153.8 520.66,-149.8 464.34,-149.8 464.34,-113.8 547.66,-113.8 547.66,-149.8"/>
<text text-anchor="middle" x="506" y="-127.6" font-family="Times,serif" font-size="14.00">AppModule</text>
</g>
<!-- AppComponent&#45;&gt;AppModule -->
<g id="edge1" class="edge">
<title>AppComponent&#45;&gt;AppModule</title>
<path fill="none" stroke="black" d="M603.88,-85.08C603.88,-106.12 603.88,-137.8 603.88,-137.8 603.88,-137.8 557.79,-137.8 557.79,-137.8"/>
<polygon fill="black" stroke="black" points="557.79,-134.3 547.79,-137.8 557.79,-141.3 557.79,-134.3"/>
</g>
<!-- FooterComponent -->
<g id="node2" class="node">
<title>FooterComponent</title>
<polygon fill="#ffffb3" stroke="black" points="564.88,-84.8 447.12,-84.8 447.12,-48.8 564.88,-48.8 564.88,-84.8"/>
<text text-anchor="middle" x="506" y="-62.6" font-family="Times,serif" font-size="14.00">FooterComponent</text>
</g>
<!-- FooterComponent&#45;&gt;AppModule -->
<g id="edge2" class="edge">
<title>FooterComponent&#45;&gt;AppModule</title>
<path fill="none" stroke="black" d="M506,-84.91C506,-84.91 506,-103.79 506,-103.79"/>
<polygon fill="black" stroke="black" points="502.5,-103.79 506,-113.79 509.5,-103.79 502.5,-103.79"/>
</g>
<!-- HeaderComponent -->
<g id="node3" class="node">
<title>HeaderComponent</title>
<polygon fill="#ffffb3" stroke="black" points="428.74,-84.8 307.26,-84.8 307.26,-48.8 428.74,-48.8 428.74,-84.8"/>
<text text-anchor="middle" x="368" y="-62.6" font-family="Times,serif" font-size="14.00">HeaderComponent</text>
</g>
<!-- HeaderComponent&#45;&gt;AppModule -->
<g id="edge3" class="edge">
<title>HeaderComponent&#45;&gt;AppModule</title>
<path fill="none" stroke="black" d="M368,-84.83C368,-101.2 368,-122.8 368,-122.8 368,-122.8 454.22,-122.8 454.22,-122.8"/>
<polygon fill="black" stroke="black" points="454.22,-126.3 464.22,-122.8 454.22,-119.3 454.22,-126.3"/>
</g>
<!-- IndexComponent -->
<g id="node4" class="node">
<title>IndexComponent</title>
<polygon fill="#ffffb3" stroke="black" points="289.71,-84.8 176.29,-84.8 176.29,-48.8 289.71,-48.8 289.71,-84.8"/>
<text text-anchor="middle" x="233" y="-62.6" font-family="Times,serif" font-size="14.00">IndexComponent</text>
</g>
<!-- IndexComponent&#45;&gt;AppModule -->
<g id="edge4" class="edge">
<title>IndexComponent&#45;&gt;AppModule</title>
<path fill="none" stroke="black" d="M233,-84.91C233,-104.14 233,-131.8 233,-131.8 233,-131.8 454.24,-131.8 454.24,-131.8"/>
<polygon fill="black" stroke="black" points="454.24,-135.3 464.24,-131.8 454.24,-128.3 454.24,-135.3"/>
</g>
<!-- AppComponent  -->
<g id="node7" class="node">
<title>AppComponent </title>
<polygon fill="#80b1d3" stroke="black" points="624.44,-214.8 515.56,-214.8 515.56,-178.8 624.44,-178.8 624.44,-214.8"/>
<text text-anchor="middle" x="570" y="-192.6" font-family="Times,serif" font-size="14.00">AppComponent </text>
</g>
<!-- AppModule&#45;&gt;AppComponent  -->
<g id="edge6" class="edge">
<title>AppModule&#45;&gt;AppComponent </title>
<path fill="none" stroke="black" stroke-dasharray="1,5" d="M531.68,-149.91C531.68,-149.91 531.68,-168.79 531.68,-168.79"/>
<polygon fill="black" stroke="black" points="528.18,-168.79 531.68,-178.79 535.18,-168.79 528.18,-168.79"/>
</g>
<!-- AppServerModule -->
<g id="node8" class="node">
<title>AppServerModule</title>
<polygon fill="#8dd3c7" stroke="black" points="841.19,-214.8 838.19,-218.8 817.19,-218.8 814.19,-214.8 720.81,-214.8 720.81,-178.8 841.19,-178.8 841.19,-214.8"/>
<text text-anchor="middle" x="781" y="-192.6" font-family="Times,serif" font-size="14.00">AppServerModule</text>
</g>
<!-- AppModule&#45;&gt;AppServerModule -->
<g id="edge7" class="edge">
<title>AppModule&#45;&gt;AppServerModule</title>
<path fill="none" stroke="black" d="M547.67,-143.8C611.15,-143.8 724.79,-143.8 724.79,-143.8 724.79,-143.8 724.79,-168.56 724.79,-168.56"/>
<polygon fill="black" stroke="black" points="721.29,-168.56 724.79,-178.56 728.29,-168.56 721.29,-168.56"/>
</g>
<!-- AppRoutingModule -->
<g id="node6" class="node">
<title>AppRoutingModule</title>
<polygon fill="#8dd3c7" stroke="black" points="152.27,-84.8 149.27,-88.8 128.27,-88.8 125.27,-84.8 23.73,-84.8 23.73,-48.8 152.27,-48.8 152.27,-84.8"/>
<text text-anchor="middle" x="88" y="-62.6" font-family="Times,serif" font-size="14.00">AppRoutingModule</text>
</g>
<!-- AppRoutingModule&#45;&gt;AppModule -->
<g id="edge5" class="edge">
<title>AppRoutingModule&#45;&gt;AppModule</title>
<path fill="none" stroke="black" d="M88,-85.09C88,-107.01 88,-140.8 88,-140.8 88,-140.8 454.01,-140.8 454.01,-140.8"/>
<polygon fill="black" stroke="black" points="454.01,-144.3 464.01,-140.8 454.01,-137.3 454.01,-144.3"/>
</g>
<!-- AppServerModule&#45;&gt;AppComponent  -->
<g id="edge8" class="edge">
<title>AppServerModule&#45;&gt;AppComponent </title>
<path fill="none" stroke="black" stroke-dasharray="1,5" d="M720.82,-196.8C720.82,-196.8 634.49,-196.8 634.49,-196.8"/>
<polygon fill="black" stroke="black" points="634.49,-193.3 624.49,-196.8 634.49,-200.3 634.49,-193.3"/>
</g>
<!-- AuthComponent -->
<g id="node9" class="node">
<title>AuthComponent</title>
<polygon fill="#ffffb3" stroke="black" points="1857.83,-84.8 1748.17,-84.8 1748.17,-48.8 1857.83,-48.8 1857.83,-84.8"/>
<text text-anchor="middle" x="1803" y="-62.6" font-family="Times,serif" font-size="14.00">AuthComponent</text>
</g>
<!-- AuthModule -->
<g id="node15" class="node">
<title>AuthModule</title>
<polygon fill="#8dd3c7" stroke="black" points="1310.55,-149.8 1307.55,-153.8 1286.55,-153.8 1283.55,-149.8 1223.45,-149.8 1223.45,-113.8 1310.55,-113.8 1310.55,-149.8"/>
<text text-anchor="middle" x="1267" y="-127.6" font-family="Times,serif" font-size="14.00">AuthModule</text>
</g>
<!-- AuthComponent&#45;&gt;AuthModule -->
<g id="edge9" class="edge">
<title>AuthComponent&#45;&gt;AuthModule</title>
<path fill="none" stroke="black" d="M1803,-85.09C1803,-107.01 1803,-140.8 1803,-140.8 1803,-140.8 1320.86,-140.8 1320.86,-140.8"/>
<polygon fill="black" stroke="black" points="1320.86,-137.3 1310.86,-140.8 1320.86,-144.3 1320.86,-137.3"/>
</g>
<!-- ConnectAccountFormComponent -->
<g id="node10" class="node">
<title>ConnectAccountFormComponent</title>
<polygon fill="#ffffb3" stroke="black" points="1729.75,-84.8 1524.25,-84.8 1524.25,-48.8 1729.75,-48.8 1729.75,-84.8"/>
<text text-anchor="middle" x="1627" y="-62.6" font-family="Times,serif" font-size="14.00">ConnectAccountFormComponent</text>
</g>
<!-- ConnectAccountFormComponent&#45;&gt;AuthModule -->
<g id="edge10" class="edge">
<title>ConnectAccountFormComponent&#45;&gt;AuthModule</title>
<path fill="none" stroke="black" d="M1627,-84.91C1627,-104.14 1627,-131.8 1627,-131.8 1627,-131.8 1320.78,-131.8 1320.78,-131.8"/>
<polygon fill="black" stroke="black" points="1320.78,-128.3 1310.78,-131.8 1320.78,-135.3 1320.78,-128.3"/>
</g>
<!-- LoginFormComponent -->
<g id="node11" class="node">
<title>LoginFormComponent</title>
<polygon fill="#ffffb3" stroke="black" points="1506.61,-84.8 1361.39,-84.8 1361.39,-48.8 1506.61,-48.8 1506.61,-84.8"/>
<text text-anchor="middle" x="1434" y="-62.6" font-family="Times,serif" font-size="14.00">LoginFormComponent</text>
</g>
<!-- LoginFormComponent&#45;&gt;AuthModule -->
<g id="edge11" class="edge">
<title>LoginFormComponent&#45;&gt;AuthModule</title>
<path fill="none" stroke="black" d="M1434,-84.83C1434,-101.2 1434,-122.8 1434,-122.8 1434,-122.8 1320.88,-122.8 1320.88,-122.8"/>
<polygon fill="black" stroke="black" points="1320.88,-119.3 1310.88,-122.8 1320.88,-126.3 1320.88,-119.3"/>
</g>
<!-- LogoutFormComponent -->
<g id="node12" class="node">
<title>LogoutFormComponent</title>
<polygon fill="#ffffb3" stroke="black" points="1343.11,-84.8 1190.89,-84.8 1190.89,-48.8 1343.11,-48.8 1343.11,-84.8"/>
<text text-anchor="middle" x="1267" y="-62.6" font-family="Times,serif" font-size="14.00">LogoutFormComponent</text>
</g>
<!-- LogoutFormComponent&#45;&gt;AuthModule -->
<g id="edge12" class="edge">
<title>LogoutFormComponent&#45;&gt;AuthModule</title>
<path fill="none" stroke="black" d="M1267,-84.91C1267,-84.91 1267,-103.79 1267,-103.79"/>
<polygon fill="black" stroke="black" points="1263.5,-103.79 1267,-113.79 1270.5,-103.79 1263.5,-103.79"/>
</g>
<!-- SignUpFormComponent -->
<g id="node13" class="node">
<title>SignUpFormComponent</title>
<polygon fill="#ffffb3" stroke="black" points="1173.45,-84.8 1018.55,-84.8 1018.55,-48.8 1173.45,-48.8 1173.45,-84.8"/>
<text text-anchor="middle" x="1096" y="-62.6" font-family="Times,serif" font-size="14.00">SignUpFormComponent</text>
</g>
<!-- SignUpFormComponent&#45;&gt;AuthModule -->
<g id="edge13" class="edge">
<title>SignUpFormComponent&#45;&gt;AuthModule</title>
<path fill="none" stroke="black" d="M1096,-85.04C1096,-100.37 1096,-119.8 1096,-119.8 1096,-119.8 1213.41,-119.8 1213.41,-119.8"/>
<polygon fill="black" stroke="black" points="1213.41,-123.3 1223.41,-119.8 1213.41,-116.3 1213.41,-123.3"/>
</g>
<!-- SocialComponent -->
<g id="node14" class="node">
<title>SocialComponent</title>
<polygon fill="#ffffb3" stroke="black" points="1001.33,-84.8 884.67,-84.8 884.67,-48.8 1001.33,-48.8 1001.33,-84.8"/>
<text text-anchor="middle" x="943" y="-62.6" font-family="Times,serif" font-size="14.00">SocialComponent</text>
</g>
<!-- SocialComponent&#45;&gt;AuthModule -->
<g id="edge14" class="edge">
<title>SocialComponent&#45;&gt;AuthModule</title>
<path fill="none" stroke="black" d="M943,-84.82C943,-102.17 943,-125.8 943,-125.8 943,-125.8 1213.3,-125.8 1213.3,-125.8"/>
<polygon fill="black" stroke="black" points="1213.3,-129.3 1223.3,-125.8 1213.3,-122.3 1213.3,-129.3"/>
</g>
<!-- AuthRoutingModule -->
<g id="node16" class="node">
<title>AuthRoutingModule</title>
<polygon fill="#8dd3c7" stroke="black" points="861.17,-84.8 858.17,-88.8 837.17,-88.8 834.17,-84.8 728.83,-84.8 728.83,-48.8 861.17,-48.8 861.17,-84.8"/>
<text text-anchor="middle" x="795" y="-62.6" font-family="Times,serif" font-size="14.00">AuthRoutingModule</text>
</g>
<!-- AuthRoutingModule&#45;&gt;AuthModule -->
<g id="edge15" class="edge">
<title>AuthRoutingModule&#45;&gt;AuthModule</title>
<path fill="none" stroke="black" d="M851.21,-84.91C851.21,-104.14 851.21,-131.8 851.21,-131.8 851.21,-131.8 1213.29,-131.8 1213.29,-131.8"/>
<polygon fill="black" stroke="black" points="1213.29,-135.3 1223.29,-131.8 1213.29,-128.3 1213.29,-135.3"/>
</g>
<!-- HttpStatusComponent -->
<g id="node17" class="node">
<title>HttpStatusComponent</title>
<polygon fill="#ffffb3" stroke="black" points="2226.44,-84.8 2085.56,-84.8 2085.56,-48.8 2226.44,-48.8 2226.44,-84.8"/>
<text text-anchor="middle" x="2156" y="-62.6" font-family="Times,serif" font-size="14.00">HttpStatusComponent</text>
</g>
<!-- HttpStatusModule -->
<g id="node18" class="node">
<title>HttpStatusModule</title>
<polygon fill="#8dd3c7" stroke="black" points="2127.16,-149.8 2124.16,-153.8 2103.16,-153.8 2100.16,-149.8 2008.84,-149.8 2008.84,-113.8 2127.16,-113.8 2127.16,-149.8"/>
<text text-anchor="middle" x="2068" y="-127.6" font-family="Times,serif" font-size="14.00">HttpStatusModule</text>
</g>
<!-- HttpStatusComponent&#45;&gt;HttpStatusModule -->
<g id="edge16" class="edge">
<title>HttpStatusComponent&#45;&gt;HttpStatusModule</title>
<path fill="none" stroke="black" d="M2106.55,-84.91C2106.55,-84.91 2106.55,-103.79 2106.55,-103.79"/>
<polygon fill="black" stroke="black" points="2103.05,-103.79 2106.55,-113.79 2110.05,-103.79 2103.05,-103.79"/>
</g>
<!-- HttpStatusRoutingModule -->
<g id="node19" class="node">
<title>HttpStatusRoutingModule</title>
<polygon fill="#8dd3c7" stroke="black" points="2061.78,-84.8 2058.78,-88.8 2037.78,-88.8 2034.78,-84.8 1898.22,-84.8 1898.22,-48.8 2061.78,-48.8 2061.78,-84.8"/>
<text text-anchor="middle" x="1980" y="-62.6" font-family="Times,serif" font-size="14.00">HttpStatusRoutingModule</text>
</g>
<!-- HttpStatusRoutingModule&#45;&gt;HttpStatusModule -->
<g id="edge17" class="edge">
<title>HttpStatusRoutingModule&#45;&gt;HttpStatusModule</title>
<path fill="none" stroke="black" d="M2035.28,-84.91C2035.28,-84.91 2035.28,-103.79 2035.28,-103.79"/>
<polygon fill="black" stroke="black" points="2031.78,-103.79 2035.28,-113.79 2038.78,-103.79 2031.78,-103.79"/>
</g>
<!-- ModalComponent -->
<g id="node20" class="node">
<title>ModalComponent</title>
<polygon fill="#ffffb3" stroke="black" points="3556.88,-84.8 3439.12,-84.8 3439.12,-48.8 3556.88,-48.8 3556.88,-84.8"/>
<text text-anchor="middle" x="3498" y="-62.6" font-family="Times,serif" font-size="14.00">ModalComponent</text>
</g>
<!-- TasksModule -->
<g id="node26" class="node">
<title>TasksModule</title>
<polygon fill="#8dd3c7" stroke="black" points="2987.21,-149.8 2984.21,-153.8 2963.21,-153.8 2960.21,-149.8 2894.79,-149.8 2894.79,-113.8 2987.21,-113.8 2987.21,-149.8"/>
<text text-anchor="middle" x="2941" y="-127.6" font-family="Times,serif" font-size="14.00">TasksModule</text>
</g>
<!-- ModalComponent&#45;&gt;TasksModule -->
<g id="edge18" class="edge">
<title>ModalComponent&#45;&gt;TasksModule</title>
<path fill="none" stroke="black" d="M3498,-85.08C3498,-106.12 3498,-137.8 3498,-137.8 3498,-137.8 2997.53,-137.8 2997.53,-137.8"/>
<polygon fill="black" stroke="black" points="2997.53,-134.3 2987.53,-137.8 2997.53,-141.3 2997.53,-134.3"/>
</g>
<!-- ModalDirective -->
<g id="node21" class="node">
<title>ModalDirective</title>
<polygon fill="#ffffb3" stroke="black" points="3421.13,-84.8 3316.87,-84.8 3316.87,-48.8 3421.13,-48.8 3421.13,-84.8"/>
<text text-anchor="middle" x="3369" y="-62.6" font-family="Times,serif" font-size="14.00">ModalDirective</text>
</g>
<!-- ModalDirective&#45;&gt;TasksModule -->
<g id="edge19" class="edge">
<title>ModalDirective&#45;&gt;TasksModule</title>
<path fill="none" stroke="black" d="M3369,-84.91C3369,-104.14 3369,-131.8 3369,-131.8 3369,-131.8 2997.21,-131.8 2997.21,-131.8"/>
<polygon fill="black" stroke="black" points="2997.21,-128.3 2987.21,-131.8 2997.21,-135.3 2997.21,-128.3"/>
</g>
<!-- TaskComponent -->
<g id="node22" class="node">
<title>TaskComponent</title>
<polygon fill="#ffffb3" stroke="black" points="3298.05,-84.8 3189.95,-84.8 3189.95,-48.8 3298.05,-48.8 3298.05,-84.8"/>
<text text-anchor="middle" x="3244" y="-62.6" font-family="Times,serif" font-size="14.00">TaskComponent</text>
</g>
<!-- TaskComponent&#45;&gt;TasksModule -->
<g id="edge20" class="edge">
<title>TaskComponent&#45;&gt;TasksModule</title>
<path fill="none" stroke="black" d="M3244,-84.82C3244,-102.17 3244,-125.8 3244,-125.8 3244,-125.8 2997.35,-125.8 2997.35,-125.8"/>
<polygon fill="black" stroke="black" points="2997.35,-122.3 2987.35,-125.8 2997.35,-129.3 2997.35,-122.3"/>
</g>
<!-- TaskListComponent -->
<g id="node23" class="node">
<title>TaskListComponent</title>
<polygon fill="#ffffb3" stroke="black" points="3172.32,-84.8 3041.68,-84.8 3041.68,-48.8 3172.32,-48.8 3172.32,-84.8"/>
<text text-anchor="middle" x="3107" y="-62.6" font-family="Times,serif" font-size="14.00">TaskListComponent</text>
</g>
<!-- TaskListComponent&#45;&gt;TasksModule -->
<g id="edge21" class="edge">
<title>TaskListComponent&#45;&gt;TasksModule</title>
<path fill="none" stroke="black" d="M3107,-85.04C3107,-100.37 3107,-119.8 3107,-119.8 3107,-119.8 2997.24,-119.8 2997.24,-119.8"/>
<polygon fill="black" stroke="black" points="2997.24,-116.3 2987.24,-119.8 2997.24,-123.3 2997.24,-116.3"/>
</g>
<!-- TaskListEditorComponent -->
<g id="node24" class="node">
<title>TaskListEditorComponent</title>
<polygon fill="#ffffb3" stroke="black" points="3023.82,-84.8 2858.18,-84.8 2858.18,-48.8 3023.82,-48.8 3023.82,-84.8"/>
<text text-anchor="middle" x="2941" y="-62.6" font-family="Times,serif" font-size="14.00">TaskListEditorComponent</text>
</g>
<!-- TaskListEditorComponent&#45;&gt;TasksModule -->
<g id="edge22" class="edge">
<title>TaskListEditorComponent&#45;&gt;TasksModule</title>
<path fill="none" stroke="black" d="M2941,-84.91C2941,-84.91 2941,-103.79 2941,-103.79"/>
<polygon fill="black" stroke="black" points="2937.5,-103.79 2941,-113.79 2944.5,-103.79 2937.5,-103.79"/>
</g>
<!-- TasksComponent -->
<g id="node25" class="node">
<title>TasksComponent</title>
<polygon fill="#ffffb3" stroke="black" points="2839.99,-84.8 2726.01,-84.8 2726.01,-48.8 2839.99,-48.8 2839.99,-84.8"/>
<text text-anchor="middle" x="2783" y="-62.6" font-family="Times,serif" font-size="14.00">TasksComponent</text>
</g>
<!-- TasksComponent&#45;&gt;TasksModule -->
<g id="edge23" class="edge">
<title>TasksComponent&#45;&gt;TasksModule</title>
<path fill="none" stroke="black" d="M2783,-84.81C2783,-100.85 2783,-121.8 2783,-121.8 2783,-121.8 2884.88,-121.8 2884.88,-121.8"/>
<polygon fill="black" stroke="black" points="2884.88,-125.3 2894.88,-121.8 2884.88,-118.3 2884.88,-125.3"/>
</g>
<!-- TasksRoutingModule -->
<g id="node27" class="node">
<title>TasksRoutingModule</title>
<polygon fill="#8dd3c7" stroke="black" points="2701.82,-84.8 2698.82,-88.8 2677.82,-88.8 2674.82,-84.8 2564.18,-84.8 2564.18,-48.8 2701.82,-48.8 2701.82,-84.8"/>
<text text-anchor="middle" x="2633" y="-62.6" font-family="Times,serif" font-size="14.00">TasksRoutingModule</text>
</g>
<!-- TasksRoutingModule&#45;&gt;TasksModule -->
<g id="edge24" class="edge">
<title>TasksRoutingModule&#45;&gt;TasksModule</title>
<path fill="none" stroke="black" d="M2633,-85.07C2633,-103.36 2633,-128.8 2633,-128.8 2633,-128.8 2884.89,-128.8 2884.89,-128.8"/>
<polygon fill="black" stroke="black" points="2884.89,-132.3 2894.89,-128.8 2884.89,-125.3 2884.89,-132.3"/>
</g>
<!-- ModalService -->
<g id="node28" class="node">
<title>ModalService</title>
<ellipse fill="#fdb462" stroke="black" cx="2475" cy="-66.8" rx="65.41" ry="18"/>
<text text-anchor="middle" x="2475" y="-62.6" font-family="Times,serif" font-size="14.00">ModalService</text>
</g>
<!-- ModalService&#45;&gt;TasksModule -->
<g id="edge25" class="edge">
<title>ModalService&#45;&gt;TasksModule</title>
<path fill="none" stroke="black" d="M2475,-84.93C2475,-105.37 2475,-135.8 2475,-135.8 2475,-135.8 2884.61,-135.8 2884.61,-135.8"/>
<polygon fill="black" stroke="black" points="2884.61,-139.3 2894.61,-135.8 2884.61,-132.3 2884.61,-139.3"/>
</g>
<!-- TasksService -->
<g id="node29" class="node">
<title>TasksService</title>
<ellipse fill="#fdb462" stroke="black" cx="2329" cy="-66.8" rx="62.54" ry="18"/>
<text text-anchor="middle" x="2329" y="-62.6" font-family="Times,serif" font-size="14.00">TasksService</text>
</g>
<!-- TasksService&#45;&gt;TasksModule -->
<g id="edge26" class="edge">
<title>TasksService&#45;&gt;TasksModule</title>
<path fill="none" stroke="black" d="M2329,-84.81C2329,-107.29 2329,-142.8 2329,-142.8 2329,-142.8 2884.75,-142.8 2884.75,-142.8"/>
<polygon fill="black" stroke="black" points="2884.75,-146.3 2894.75,-142.8 2884.75,-139.3 2884.75,-146.3"/>
</g>
<!-- ProfileComponent -->
<g id="node30" class="node">
<title>ProfileComponent</title>
<polygon fill="#ffffb3" stroke="black" points="4007.93,-84.8 3888.07,-84.8 3888.07,-48.8 4007.93,-48.8 4007.93,-84.8"/>
<text text-anchor="middle" x="3948" y="-62.6" font-family="Times,serif" font-size="14.00">ProfileComponent</text>
</g>
<!-- UsersModule -->
<g id="node32" class="node">
<title>UsersModule</title>
<polygon fill="#8dd3c7" stroke="black" points="3859.92,-149.8 3856.92,-153.8 3835.92,-153.8 3832.92,-149.8 3768.08,-149.8 3768.08,-113.8 3859.92,-113.8 3859.92,-149.8"/>
<text text-anchor="middle" x="3814" y="-127.6" font-family="Times,serif" font-size="14.00">UsersModule</text>
</g>
<!-- ProfileComponent&#45;&gt;UsersModule -->
<g id="edge27" class="edge">
<title>ProfileComponent&#45;&gt;UsersModule</title>
<path fill="none" stroke="black" d="M3948,-84.91C3948,-104.14 3948,-131.8 3948,-131.8 3948,-131.8 3869.74,-131.8 3869.74,-131.8"/>
<polygon fill="black" stroke="black" points="3869.74,-128.3 3859.74,-131.8 3869.74,-135.3 3869.74,-128.3"/>
</g>
<!-- UsersComponent -->
<g id="node31" class="node">
<title>UsersComponent</title>
<polygon fill="#ffffb3" stroke="black" points="3870.7,-84.8 3757.3,-84.8 3757.3,-48.8 3870.7,-48.8 3870.7,-84.8"/>
<text text-anchor="middle" x="3814" y="-62.6" font-family="Times,serif" font-size="14.00">UsersComponent</text>
</g>
<!-- UsersComponent&#45;&gt;UsersModule -->
<g id="edge28" class="edge">
<title>UsersComponent&#45;&gt;UsersModule</title>
<path fill="none" stroke="black" d="M3814,-84.91C3814,-84.91 3814,-103.79 3814,-103.79"/>
<polygon fill="black" stroke="black" points="3810.5,-103.79 3814,-113.79 3817.5,-103.79 3810.5,-103.79"/>
</g>
<!-- UsersRoutingModule -->
<g id="node33" class="node">
<title>UsersRoutingModule</title>
<polygon fill="#8dd3c7" stroke="black" points="3733.04,-84.8 3730.04,-88.8 3709.04,-88.8 3706.04,-84.8 3596.96,-84.8 3596.96,-48.8 3733.04,-48.8 3733.04,-84.8"/>
<text text-anchor="middle" x="3665" y="-62.6" font-family="Times,serif" font-size="14.00">UsersRoutingModule</text>
</g>
<!-- UsersRoutingModule&#45;&gt;UsersModule -->
<g id="edge29" class="edge">
<title>UsersRoutingModule&#45;&gt;UsersModule</title>
<path fill="none" stroke="black" d="M3665,-85.05C3665,-107.82 3665,-143.8 3665,-143.8 3665,-143.8 3758.08,-143.8 3758.08,-143.8"/>
<polygon fill="black" stroke="black" points="3758.08,-147.3 3768.08,-143.8 3758.08,-140.3 3758.08,-147.3"/>
</g>
</g>
</svg>
