<?xml version="1.0" encoding="UTF-8" standalone="no"?>
<!DOCTYPE svg PUBLIC "-//W3C//DTD SVG 1.1//EN"
 "http://www.w3.org/Graphics/SVG/1.1/DTD/svg11.dtd">
<!-- Generated by graphviz version 2.47.3 (20210619.1520)
 -->
<!-- Title: dependencies Pages: 1 -->
<svg width="1347pt" height="174pt"
 viewBox="0.00 0.00 1347.00 173.80" xmlns="http://www.w3.org/2000/svg" xmlns:xlink="http://www.w3.org/1999/xlink">
<g id="graph0" class="graph" transform="scale(1 1) rotate(0) translate(4 169.8)">
<title>dependencies</title>
<polygon fill="white" stroke="transparent" points="-4,4 -4,-169.8 1343,-169.8 1343,4 -4,4"/>
<text text-anchor="middle" x="669.5" y="-8.2" font-family="sans-serif" font-size="14.00">dependencies</text>
<g id="clust1" class="cluster">
<title>cluster_TasksModule</title>
<polygon fill="none" stroke="black" stroke-dasharray="1,5" points="8,-32.8 8,-157.8 1331,-157.8 1331,-32.8 8,-32.8"/>
</g>
<g id="clust9" class="cluster">
<title>cluster_TasksModule_imports</title>
<polygon fill="none" stroke="black" points="1169,-40.8 1169,-92.8 1323,-92.8 1323,-40.8 1169,-40.8"/>
</g>
<g id="clust12" class="cluster">
<title>cluster_TasksModule_providers</title>
<polygon fill="none" stroke="black" points="871,-40.8 871,-92.8 1161,-92.8 1161,-40.8 871,-40.8"/>
</g>
<g id="clust2" class="cluster">
<title>cluster_TasksModule_declarations</title>
<polygon fill="none" stroke="black" points="16,-40.8 16,-92.8 863,-92.8 863,-40.8 16,-40.8"/>
</g>
<!-- ModalComponent -->
<g id="node1" class="node">
<title>ModalComponent</title>
<polygon fill="#ffffb3" stroke="black" points="854.88,-84.8 737.12,-84.8 737.12,-48.8 854.88,-48.8 854.88,-84.8"/>
<text text-anchor="middle" x="796" y="-62.6" font-family="Times,serif" font-size="14.00">ModalComponent</text>
</g>
<!-- TasksModule -->
<g id="node7" class="node">
<title>TasksModule</title>
<polygon fill="#8dd3c7" stroke="black" points="713.21,-149.8 710.21,-153.8 689.21,-153.8 686.21,-149.8 620.79,-149.8 620.79,-113.8 713.21,-113.8 713.21,-149.8"/>
<text text-anchor="middle" x="667" y="-127.6" font-family="Times,serif" font-size="14.00">TasksModule</text>
</g>
<!-- ModalComponent&#45;&gt;TasksModule -->
<g id="edge1" class="edge">
<title>ModalComponent&#45;&gt;TasksModule</title>
<path fill="none" stroke="black" d="M796,-84.81C796,-100.85 796,-121.8 796,-121.8 796,-121.8 723.21,-121.8 723.21,-121.8"/>
<polygon fill="black" stroke="black" points="723.21,-118.3 713.21,-121.8 723.21,-125.3 723.21,-118.3"/>
</g>
<!-- ModalDirective -->
<g id="node2" class="node">
<title>ModalDirective</title>
<polygon fill="#ffffb3" stroke="black" points="719.13,-84.8 614.87,-84.8 614.87,-48.8 719.13,-48.8 719.13,-84.8"/>
<text text-anchor="middle" x="667" y="-62.6" font-family="Times,serif" font-size="14.00">ModalDirective</text>
</g>
<!-- ModalDirective&#45;&gt;TasksModule -->
<g id="edge2" class="edge">
<title>ModalDirective&#45;&gt;TasksModule</title>
<path fill="none" stroke="black" d="M667,-84.91C667,-84.91 667,-103.79 667,-103.79"/>
<polygon fill="black" stroke="black" points="663.5,-103.79 667,-113.79 670.5,-103.79 663.5,-103.79"/>
</g>
<!-- TaskComponent -->
<g id="node3" class="node">
<title>TaskComponent</title>
<polygon fill="#ffffb3" stroke="black" points="596.05,-84.8 487.95,-84.8 487.95,-48.8 596.05,-48.8 596.05,-84.8"/>
<text text-anchor="middle" x="542" y="-62.6" font-family="Times,serif" font-size="14.00">TaskComponent</text>
</g>
<!-- TaskComponent&#45;&gt;TasksModule -->
<g id="edge3" class="edge">
<title>TaskComponent&#45;&gt;TasksModule</title>
<path fill="none" stroke="black" d="M542,-84.81C542,-100.85 542,-121.8 542,-121.8 542,-121.8 610.81,-121.8 610.81,-121.8"/>
<polygon fill="black" stroke="black" points="610.81,-125.3 620.81,-121.8 610.81,-118.3 610.81,-125.3"/>
</g>
<!-- TaskListComponent -->
<g id="node4" class="node">
<title>TaskListComponent</title>
<polygon fill="#ffffb3" stroke="black" points="470.32,-84.8 339.68,-84.8 339.68,-48.8 470.32,-48.8 470.32,-84.8"/>
<text text-anchor="middle" x="405" y="-62.6" font-family="Times,serif" font-size="14.00">TaskListComponent</text>
</g>
<!-- TaskListComponent&#45;&gt;TasksModule -->
<g id="edge4" class="edge">
<title>TaskListComponent&#45;&gt;TasksModule</title>
<path fill="none" stroke="black" d="M405,-85.07C405,-103.36 405,-128.8 405,-128.8 405,-128.8 610.76,-128.8 610.76,-128.8"/>
<polygon fill="black" stroke="black" points="610.76,-132.3 620.76,-128.8 610.76,-125.3 610.76,-132.3"/>
</g>
<!-- TaskListEditorComponent -->
<g id="node5" class="node">
<title>TaskListEditorComponent</title>
<polygon fill="#ffffb3" stroke="black" points="321.82,-84.8 156.18,-84.8 156.18,-48.8 321.82,-48.8 321.82,-84.8"/>
<text text-anchor="middle" x="239" y="-62.6" font-family="Times,serif" font-size="14.00">TaskListEditorComponent</text>
</g>
<!-- TaskListEditorComponent&#45;&gt;TasksModule -->
<g id="edge5" class="edge">
<title>TaskListEditorComponent&#45;&gt;TasksModule</title>
<path fill="none" stroke="black" d="M239,-84.93C239,-105.37 239,-135.8 239,-135.8 239,-135.8 610.79,-135.8 610.79,-135.8"/>
<polygon fill="black" stroke="black" points="610.79,-139.3 620.79,-135.8 610.79,-132.3 610.79,-139.3"/>
</g>
<!-- TasksComponent -->
<g id="node6" class="node">
<title>TasksComponent</title>
<polygon fill="#ffffb3" stroke="black" points="137.99,-84.8 24.01,-84.8 24.01,-48.8 137.99,-48.8 137.99,-84.8"/>
<text text-anchor="middle" x="81" y="-62.6" font-family="Times,serif" font-size="14.00">TasksComponent</text>
</g>
<!-- TasksComponent&#45;&gt;TasksModule -->
<g id="edge6" class="edge">
<title>TasksComponent&#45;&gt;TasksModule</title>
<path fill="none" stroke="black" d="M81,-84.81C81,-107.29 81,-142.8 81,-142.8 81,-142.8 610.53,-142.8 610.53,-142.8"/>
<polygon fill="black" stroke="black" points="610.53,-146.3 620.53,-142.8 610.53,-139.3 610.53,-146.3"/>
</g>
<!-- TasksRoutingModule -->
<g id="node8" class="node">
<title>TasksRoutingModule</title>
<polygon fill="#8dd3c7" stroke="black" points="1314.82,-84.8 1311.82,-88.8 1290.82,-88.8 1287.82,-84.8 1177.18,-84.8 1177.18,-48.8 1314.82,-48.8 1314.82,-84.8"/>
<text text-anchor="middle" x="1246" y="-62.6" font-family="Times,serif" font-size="14.00">TasksRoutingModule</text>
</g>
<!-- TasksRoutingModule&#45;&gt;TasksModule -->
<g id="edge7" class="edge">
<title>TasksRoutingModule&#45;&gt;TasksModule</title>
<path fill="none" stroke="black" d="M1246,-84.81C1246,-107.29 1246,-142.8 1246,-142.8 1246,-142.8 723.4,-142.8 723.4,-142.8"/>
<polygon fill="black" stroke="black" points="723.4,-139.3 713.4,-142.8 723.4,-146.3 723.4,-139.3"/>
</g>
<!-- ModalService -->
<g id="node9" class="node">
<title>ModalService</title>
<ellipse fill="#fdb462" stroke="black" cx="1088" cy="-66.8" rx="65.41" ry="18"/>
<text text-anchor="middle" x="1088" y="-62.6" font-family="Times,serif" font-size="14.00">ModalService</text>
</g>
<!-- ModalService&#45;&gt;TasksModule -->
<g id="edge8" class="edge">
<title>ModalService&#45;&gt;TasksModule</title>
<path fill="none" stroke="black" d="M1088,-84.93C1088,-105.37 1088,-135.8 1088,-135.8 1088,-135.8 723.26,-135.8 723.26,-135.8"/>
<polygon fill="black" stroke="black" points="723.26,-132.3 713.26,-135.8 723.26,-139.3 723.26,-132.3"/>
</g>
<!-- TasksService -->
<g id="node10" class="node">
<title>TasksService</title>
<ellipse fill="#fdb462" stroke="black" cx="942" cy="-66.8" rx="62.54" ry="18"/>
<text text-anchor="middle" x="942" y="-62.6" font-family="Times,serif" font-size="14.00">TasksService</text>
</g>
<!-- TasksService&#45;&gt;TasksModule -->
<g id="edge9" class="edge">
<title>TasksService&#45;&gt;TasksModule</title>
<path fill="none" stroke="black" d="M942,-85.07C942,-103.36 942,-128.8 942,-128.8 942,-128.8 723.34,-128.8 723.34,-128.8"/>
<polygon fill="black" stroke="black" points="723.34,-125.3 713.34,-128.8 723.34,-132.3 723.34,-125.3"/>
</g>
</g>
</svg>
