<?xml version="1.0" encoding="UTF-8" standalone="no"?>
<!DOCTYPE svg PUBLIC "-//W3C//DTD SVG 1.1//EN"
 "http://www.w3.org/Graphics/SVG/1.1/DTD/svg11.dtd">
<!-- Generated by graphviz version 2.47.3 (20210619.1520)
 -->
<!-- Title: dependencies Pages: 1 -->
<svg width="467pt" height="174pt"
 viewBox="0.00 0.00 467.00 173.80" xmlns="http://www.w3.org/2000/svg" xmlns:xlink="http://www.w3.org/1999/xlink">
<g id="graph0" class="graph" transform="scale(1 1) rotate(0) translate(4 169.8)">
<title>dependencies</title>
<polygon fill="white" stroke="transparent" points="-4,4 -4,-169.8 463,-169.8 463,4 -4,4"/>
<text text-anchor="middle" x="229.5" y="-8.2" font-family="sans-serif" font-size="14.00">dependencies</text>
<g id="clust1" class="cluster">
<title>cluster_UsersModule</title>
<polygon fill="none" stroke="black" stroke-dasharray="1,5" points="8,-32.8 8,-157.8 451,-157.8 451,-32.8 8,-32.8"/>
</g>
<g id="clust5" class="cluster">
<title>cluster_UsersModule_imports</title>
<polygon fill="none" stroke="black" points="291,-40.8 291,-92.8 443,-92.8 443,-40.8 291,-40.8"/>
</g>
<g id="clust2" class="cluster">
<title>cluster_UsersModule_declarations</title>
<polygon fill="none" stroke="black" points="16,-40.8 16,-92.8 283,-92.8 283,-40.8 16,-40.8"/>
</g>
<!-- ProfileComponent -->
<g id="node1" class="node">
<title>ProfileComponent</title>
<polygon fill="#ffffb3" stroke="black" points="274.93,-84.8 155.07,-84.8 155.07,-48.8 274.93,-48.8 274.93,-84.8"/>
<text text-anchor="middle" x="215" y="-62.6" font-family="Times,serif" font-size="14.00">ProfileComponent</text>
</g>
<!-- UsersModule -->
<g id="node3" class="node">
<title>UsersModule</title>
<polygon fill="#8dd3c7" stroke="black" points="260.92,-149.8 257.92,-153.8 236.92,-153.8 233.92,-149.8 169.08,-149.8 169.08,-113.8 260.92,-113.8 260.92,-149.8"/>
<text text-anchor="middle" x="215" y="-127.6" font-family="Times,serif" font-size="14.00">UsersModule</text>
</g>
<!-- ProfileComponent&#45;&gt;UsersModule -->
<g id="edge1" class="edge">
<title>ProfileComponent&#45;&gt;UsersModule</title>
<path fill="none" stroke="black" d="M215,-84.91C215,-84.91 215,-103.79 215,-103.79"/>
<polygon fill="black" stroke="black" points="211.5,-103.79 215,-113.79 218.5,-103.79 211.5,-103.79"/>
</g>
<!-- UsersComponent -->
<g id="node2" class="node">
<title>UsersComponent</title>
<polygon fill="#ffffb3" stroke="black" points="137.7,-84.8 24.3,-84.8 24.3,-48.8 137.7,-48.8 137.7,-84.8"/>
<text text-anchor="middle" x="81" y="-62.6" font-family="Times,serif" font-size="14.00">UsersComponent</text>
</g>
<!-- UsersComponent&#45;&gt;UsersModule -->
<g id="edge2" class="edge">
<title>UsersComponent&#45;&gt;UsersModule</title>
<path fill="none" stroke="black" d="M81,-84.91C81,-104.14 81,-131.8 81,-131.8 81,-131.8 159.26,-131.8 159.26,-131.8"/>
<polygon fill="black" stroke="black" points="159.26,-135.3 169.26,-131.8 159.26,-128.3 159.26,-135.3"/>
</g>
<!-- UsersRoutingModule -->
<g id="node4" class="node">
<title>UsersRoutingModule</title>
<polygon fill="#8dd3c7" stroke="black" points="435.04,-84.8 432.04,-88.8 411.04,-88.8 408.04,-84.8 298.96,-84.8 298.96,-48.8 435.04,-48.8 435.04,-84.8"/>
<text text-anchor="middle" x="367" y="-62.6" font-family="Times,serif" font-size="14.00">UsersRoutingModule</text>
</g>
<!-- UsersRoutingModule&#45;&gt;UsersModule -->
<g id="edge3" class="edge">
<title>UsersRoutingModule&#45;&gt;UsersModule</title>
<path fill="none" stroke="black" d="M367,-84.91C367,-104.14 367,-131.8 367,-131.8 367,-131.8 271.02,-131.8 271.02,-131.8"/>
<polygon fill="black" stroke="black" points="271.02,-128.3 261.02,-131.8 271.02,-135.3 271.02,-128.3"/>
</g>
</g>
</svg>
